# Wavefront OBJ file automatically generated by Tiled2Unity

# Vertices (Count = 56)
v -256 -480 0
v -288 -480 0
v -288 -448 0
v -256 -448 0
v -224 -480 0
v -224 -448 0
v -192 -480 0
v -192 -448 0
v -160 -480 0
v -160 -448 0
v -128 -480 0
v -128 -448 0
v -96 -480 0
v -96 -448 0
v -64 -480 0
v -64 -448 0
v -288 -416 0
v -256 -416 0
v -96 -416 0
v -64 -416 0
v -288 -384 0
v -256 -384 0
v -96 -384 0
v -64 -384 0
v -288 -352 0
v -256 -352 0
v -96 -352 0
v -64 -352 0
v -288 -320 0
v -256 -320 0
v -96 -320 0
v -64 -320 0
v -288 -288 0
v -256 -288 0
v -96 -288 0
v -64 -288 0
v -288 -256 0
v -256 -256 0
v -96 -256 0
v -64 -256 0
v -288 -224 0
v -256 -224 0
v -96 -224 0
v -64 -224 0
v -288 -192 0
v -256 -192 0
v -96 -192 0
v -64 -192 0
v -288 -160 0
v -256 -160 0
v -96 -160 0
v -64 -160 0
v -224 -416 0
v -192 -416 0
v -160 -416 0
v -128 -416 0

# Texture cooridinates (Count = 8)
vt 1.525879E-05 0.6250153
vt 0.1249847 0.6250153
vt 0.1249847 0.7499847
vt 1.525879E-05 0.7499847
vt 0.1250153 0.6250153
vt 0.2499847 0.6250153
vt 0.2499847 0.7499847
vt 0.1250153 0.7499847

# Normal
vn 0 0 -1

# Groups (Count = 3)

g mesh_0001
f 1/1/1 2/2/1 3/3/1 4/4/1
f 5/1/1 1/2/1 4/3/1 6/4/1
f 7/1/1 5/2/1 6/3/1 8/4/1
f 9/1/1 7/2/1 8/3/1 10/4/1
f 11/1/1 9/2/1 10/3/1 12/4/1
f 13/1/1 11/2/1 12/3/1 14/4/1
f 15/1/1 13/2/1 14/3/1 16/4/1
f 4/1/1 3/2/1 17/3/1 18/4/1
f 16/1/1 14/2/1 19/3/1 20/4/1

g mesh_0002
f 18/1/1 17/2/1 21/3/1 22/4/1
f 20/1/1 19/2/1 23/3/1 24/4/1
f 22/1/1 21/2/1 25/3/1 26/4/1
f 24/1/1 23/2/1 27/3/1 28/4/1
f 26/1/1 25/2/1 29/3/1 30/4/1
f 28/1/1 27/2/1 31/3/1 32/4/1
f 30/1/1 29/2/1 33/3/1 34/4/1
f 32/1/1 31/2/1 35/3/1 36/4/1
f 34/1/1 33/2/1 37/3/1 38/4/1
f 36/1/1 35/2/1 39/3/1 40/4/1
f 38/1/1 37/2/1 41/3/1 42/4/1
f 40/1/1 39/2/1 43/3/1 44/4/1
f 42/1/1 41/2/1 45/3/1 46/4/1
f 44/1/1 43/2/1 47/3/1 48/4/1
f 46/1/1 45/2/1 49/3/1 50/4/1
f 48/1/1 47/2/1 51/3/1 52/4/1

g mesh_0003
f 6/5/1 4/6/1 18/7/1 53/8/1
f 8/5/1 6/6/1 53/7/1 54/8/1
f 12/5/1 10/6/1 55/7/1 56/8/1
f 14/5/1 12/6/1 56/7/1 19/8/1

